# xmcd
#
# Track frame offsets:
#	150
#	14332
#	25735
#	41595
#	56127
#	67377
#	82152
#	94275
#	106600
#	117140
#
# Disc length: 1680 seconds
#
# Revision: 1
# Processed by: cddbd v1.4PL0 Copyright (c) Steve Scherf et al.
# Submitted via: audiograbber 1.80
#
DISCID=84068e0a
DTITLE=Crystal Gayle - Hollywood, Tennessee
DYEAR=1900
DGENRE=
TTITLE0=Keepin' Power
TTITLE1=The Woman In Me
TTITLE2=Ain't No Sunshine
TTITLE3=You Never Gave Up On Me
TTITLE4=Hollywood
TTITLE5=Livin' In These Troubled Times
TTITLE6=Love, Crazy Love
TTITLE7=Lean On Me
TTITLE8=Crying In The Rain
TTITLE9=Tennessee
EXTD=
EXTT0=
EXTT1=
EXTT2=
EXTT3=
EXTT4=
EXTT5=
EXTT6=
EXTT7=
EXTT8=
EXTT9=
PLAYORDER=
